<?xml version="1.0" encoding="utf-8"?>
<!-- Generator: Adobe Illustrator 18.0.0, SVG Export Plug-In . SVG Version: 6.00 Build 0)  -->
<!DOCTYPE svg PUBLIC "-//W3C//DTD SVG 1.1//EN" "http://www.w3.org/Graphics/SVG/1.1/DTD/svg11.dtd">
<svg version="1.1" id="Ebene_1" xmlns="http://www.w3.org/2000/svg" xmlns:xlink="http://www.w3.org/1999/xlink" x="0px" y="0px"
	 viewBox="0 0 198.4 70.9" enable-background="new 0 0 198.4 70.9" xml:space="preserve">
<path fill="#184F44" d="M63.8,0h70.9v70.9H63.8V0z"/>
<path fill="#FFFFFF" d="M113.6,53.2H84.8c-0.6,0-1.1-0.5-1.1-1.1V34.3c0-0.6,0.5-1.1,1.1-1.1h28.8c0.6,0,1.1,0.5,1.1,1.1V52
	C114.7,52.7,114.2,53.2,113.6,53.2z"/>
<path fill="#FFFFFF" d="M99.2,21.6c3.7,0,6.6,3,6.6,6.6h4.4c0-6.1-5-11.1-11.1-11.1s-11.1,5-11.1,11.1v8.9h4.4v-8.9
	C92.6,24.6,95.6,21.6,99.2,21.6z"/>
<circle fill="#184F44" cx="99.2" cy="42.1" r="4.4"/>
<path fill="#184F44" d="M97,42.1h4.4v6.6H97V42.1z"/>
</svg>
